<?xml version="1.0" encoding="UTF-8"?>
<svg id="TEXT" xmlns="http://www.w3.org/2000/svg" viewBox="0 0 48.86 38.41">
  <defs>
    <style>
      .cls-1 {
        fill: #fff;
      }
    </style>
  </defs>
  <path class="cls-1" d="M33.46,7.83c-1.15,0-2.07,.93-2.07,2.07s.93,2.07,2.07,2.07,2.07-.93,2.07-2.07-.93-2.07-2.07-2.07Z"/>
  <path class="cls-1" d="M24.24,10.49c-4.8,0-8.71,3.91-8.71,8.71s3.91,8.71,8.71,8.71,8.71-3.91,8.71-8.71-3.91-8.71-8.71-8.71Zm0,14.29c-3.08,0-5.58-2.5-5.58-5.58s2.5-5.58,5.58-5.58,5.58,2.5,5.58,5.58-2.5,5.58-5.58,5.58Z"/>
  <path class="cls-1" d="M31.16,36.89h-14.13c-5.86,0-10.63-4.77-10.63-10.63V12.14C6.4,6.28,11.17,1.51,17.03,1.51h14.13c5.86,0,10.63,4.77,10.63,10.63v14.13c0,5.86-4.77,10.63-10.63,10.63ZM17.03,4.84c-4.02,0-7.3,3.27-7.3,7.3v14.13c0,4.02,3.27,7.3,7.3,7.3h14.13c4.02,0,7.3-3.27,7.3-7.3V12.14c0-4.02-3.27-7.3-7.3-7.3h-14.13Z"/>
</svg>