<?xml version="1.0" encoding="UTF-8"?>
<svg id="Capa_1" data-name="Capa 1" xmlns="http://www.w3.org/2000/svg" viewBox="0 0 1190.55 322.5">
  <defs>
    <style>
      .cls-1 {
        fill: #fff;
      }

      .cls-2 {
        fill: none;
        stroke: #fff;
        stroke-miterlimit: 10;
        stroke-width: 14px;
      }
    </style>
  </defs>
  <g>
    <path class="cls-1" d="M31.83,244.25V79.66h17.12l36.76,141.11h-3.73L118.73,79.66h17.12V244.25h-15.91V123.77l1.87,.33-31.49,120.15h-12.95l-31.49-120.15,1.87-.33v120.48h-15.91Z"/>
    <path class="cls-1" d="M251.28,79.66v127.5c0,12.14-3.55,21.95-10.64,29.41-7.1,7.46-16.53,11.19-28.31,11.19s-21.12-3.73-28.25-11.19c-7.13-7.46-10.7-17.26-10.7-29.41V79.66h16.46v127.5c0,7.24,2.05,13.08,6.14,17.5,4.1,4.43,9.55,6.64,16.35,6.64s12.25-2.21,16.35-6.64c4.1-4.42,6.15-10.26,6.15-17.5V79.66h16.46Z"/>
    <path class="cls-1" d="M321.4,247.76c-11.7,0-21.12-3.73-28.25-11.19-7.13-7.46-10.7-17.26-10.7-29.41v-5.49h16.46v5.49c0,7.24,2.05,13.08,6.14,17.5,4.1,4.43,9.55,6.64,16.35,6.64s12.25-2.21,16.35-6.64c4.1-4.42,6.14-10.26,6.14-17.5v-12.29c0-4.02-.15-7.22-.44-9.6-.29-2.38-1.1-4.3-2.41-5.76-1.32-1.46-3.51-2.83-6.58-4.11-3.07-1.28-7.43-2.83-13.06-4.66-9.73-3.22-17.26-5.89-22.6-8.01-5.34-2.12-9.16-4.39-11.47-6.8-2.3-2.41-3.69-5.61-4.17-9.6-.48-3.99-.71-9.38-.71-16.18v-13.39c0-12.22,3.57-22.04,10.7-29.46,7.13-7.42,16.55-11.14,28.25-11.14s21.21,3.71,28.31,11.14c7.09,7.42,10.64,17.25,10.64,29.46v5.49h-16.46v-5.49c0-7.24-2.05-13.07-6.14-17.5-4.1-4.43-9.55-6.64-16.35-6.64s-12.25,2.21-16.35,6.64c-4.1,4.43-6.14,10.26-6.14,17.5v13.39c0,4.02,.13,7.22,.38,9.6,.26,2.38,1.04,4.28,2.36,5.71,1.32,1.43,3.53,2.8,6.64,4.11,3.11,1.32,7.48,2.89,13.11,4.72,9.73,3.15,17.26,5.8,22.6,7.96,5.34,2.16,9.16,4.44,11.47,6.86,2.3,2.41,3.69,5.6,4.17,9.55,.48,3.95,.71,9.36,.71,16.24v12.29c0,12.14-3.55,21.95-10.64,29.41-7.1,7.46-16.53,11.19-28.31,11.19Z"/>
    <path class="cls-1" d="M458.77,79.66v16.46h-49.93v57.61h44v16.46h-44v57.61h49.93v16.46h-66.38V79.66h66.38Z"/>
    <path class="cls-1" d="M523.84,247.76c-11.7,0-21.12-3.73-28.25-11.19-7.13-7.46-10.7-17.26-10.7-29.41V116.74c0-12.22,3.57-22.04,10.7-29.46,7.13-7.42,16.55-11.14,28.25-11.14s21.21,3.71,28.31,11.14c7.1,7.42,10.64,17.25,10.64,29.46v90.41c0,12.14-3.55,21.95-10.64,29.41-7.1,7.46-16.53,11.19-28.31,11.19Zm0-16.46c6.8,0,12.25-2.21,16.35-6.64,4.1-4.42,6.15-10.26,6.15-17.5V116.74c0-7.24-2.05-13.07-6.15-17.5-4.1-4.43-9.55-6.64-16.35-6.64s-12.25,2.21-16.35,6.64c-4.1,4.43-6.14,10.26-6.14,17.5v90.41c0,7.24,2.05,13.08,6.14,17.5,4.1,4.43,9.55,6.64,16.35,6.64Z"/>
    <path class="cls-1" d="M645.96,243.41V80.49c0-.46,.37-.83,.83-.83h15.64c.38,0,.71,.26,.8,.62l36.33,139.44c.14,.53-.26,1.04-.8,1.04h-1.58c-.54,0-.94-.51-.8-1.04l36.33-139.44c.1-.37,.43-.62,.8-.62h15.64c.46,0,.83,.37,.83,.83V243.41c0,.46-.37,.83-.83,.83h-14.25c-.46,0-.83-.37-.83-.83V124.76c0-.52,.47-.91,.98-.82h0c.48,.08,.78,.56,.66,1.03l-31.1,118.66c-.1,.37-.43,.62-.8,.62h-11.66c-.38,0-.71-.26-.8-.62l-31.1-118.66c-.12-.47,.18-.95,.66-1.03h0c.51-.09,.98,.3,.98,.82v118.66c0,.46-.37,.83-.83,.83h-14.25c-.46,0-.83-.37-.83-.83Z"/>
    <path class="cls-1" d="M775.22,244.25l35.77-164.59h17.56l35.66,164.59h-17.01l-7.02-32.92h-40.93l-7.02,32.92h-17.01Zm27.1-49.38h34.78l-18.65-91.62h2.63l-18.76,91.62Z"/>
    <path class="cls-1" d="M905.9,79.66V227.79h45.54v16.46h-62V79.66h16.46Z"/>
    <path class="cls-1" d="M975.24,244.25V79.66h40.6c10.82,0,19.48,3.4,25.95,10.2,6.47,6.8,9.71,15.84,9.71,27.1v13.39c0,6.88-1.28,13-3.84,18.38-2.56,5.38-6.11,9.64-10.64,12.78l-.33-5.71c5.19,3,9.33,7.33,12.4,13,3.07,5.67,4.61,12.23,4.61,19.7v18.43c0,11.12-3.24,20.12-9.71,26.99-6.47,6.88-15.13,10.31-25.95,10.31h-42.79Zm16.46-93.05h24.14c5.85,0,10.52-1.9,13.99-5.71,3.47-3.8,5.21-8.85,5.21-15.14v-13.39c0-6.29-1.74-11.34-5.21-15.14-3.48-3.8-8.14-5.71-13.99-5.71h-24.14v55.08Zm0,76.59h26.33c5.85,0,10.52-1.92,13.99-5.76,3.47-3.84,5.21-8.87,5.21-15.09v-18.43c0-6.22-1.74-11.25-5.21-15.09-3.47-3.84-8.14-5.76-13.99-5.76h-26.33v60.13Z"/>
    <path class="cls-1" d="M1073.89,244.25l35.77-164.59h17.56l35.66,164.59h-17.01l-7.02-32.92h-40.93l-7.02,32.92h-17.01Zm27.1-49.38h34.78l-18.65-91.62h2.63l-18.76,91.62Z"/>
  </g>
  <line class="cls-2" x1="31.83" y1="41.61" x2="1162.87" y2="41.61"/>
  <line class="cls-2" x1="32.71" y1="285.08" x2="1163.75" y2="285.08"/>
</svg>